<svg width="119" height="91" viewBox="0 0 119 91" fill="none" xmlns="http://www.w3.org/2000/svg">
<path d="M64 2.74794C47 -8.75206 64 40.7478 1 27.7479C1 27.7479 61.5 48.7482 47 82.248C32.5 115.748 87 32.2479 112 57.2479C137 82.248 81 14.2479 64 2.74794Z" fill="#EF1B1B" stroke="black"/>
<path d="M73.0283 14.9092C74.0537 14.9092 74.8887 15.2021 75.5332 15.7881C76.207 16.3447 76.5 17.3701 76.4121 18.8643C76.3828 19.3623 76.2656 20.2998 76.0605 21.6768C75.8555 23.0244 75.6064 24.6211 75.3135 26.4668C75.0205 28.3125 74.6836 30.3047 74.3027 32.4434C73.9512 34.5527 73.6143 36.6182 73.292 38.6396H74.2148C74.5078 38.6396 74.8301 38.625 75.1816 38.5957C75.5332 38.5664 75.8994 38.5225 76.2803 38.4639C76.1338 38.8154 75.9727 39.1523 75.7969 39.4746C75.6211 39.7676 75.4453 40.0312 75.2695 40.2656C75.0645 40.5293 74.8594 40.7637 74.6543 40.9688C74.3906 41.291 74.083 41.584 73.7314 41.8477C73.3799 42.082 73.043 42.2725 72.7207 42.4189C72.5156 43.8545 72.3398 45.1436 72.1934 46.2861C72.0762 47.3994 72.0029 48.3223 71.9736 49.0547C71.915 50.168 71.9443 51.208 72.0615 52.1748C72.1494 53.0244 72.3252 53.8887 72.5889 54.7676C72.8525 55.6465 73.2773 56.3496 73.8633 56.877L68.7656 58.5469C68.4141 58.0488 68.1504 57.375 67.9746 56.5254C67.8281 55.7051 67.7256 54.8848 67.667 54.0645C67.5791 53.0977 67.5645 52.1016 67.623 51.0762C67.6816 50.0508 67.8428 48.7178 68.1064 47.0771C68.3701 45.4072 68.6631 43.5908 68.9854 41.6279C68.3994 41.4521 67.7549 41.3057 67.0518 41.1885C66.3779 41.0713 65.6162 41.0127 64.7666 41.0127C64.0049 41.0127 63.1992 41.042 62.3496 41.1006C61.5293 41.1592 60.709 41.2324 59.8887 41.3203C59.5371 42.6094 59.1855 43.9717 58.834 45.4072C58.4531 46.96 58.1016 48.2783 57.7793 49.3623C57.4863 50.4756 57.1934 51.3984 56.9004 52.1309C56.6367 52.8633 56.3584 53.4492 56.0654 53.8887C55.8018 54.3281 55.5088 54.6504 55.1865 54.8555C54.835 55.0312 54.3955 55.1924 53.8682 55.3389C53.3701 55.4854 52.7402 55.6318 51.9785 55.7783C51.2168 55.9248 50.2354 56.042 49.0342 56.1299C49.4736 55.6025 49.8545 55.1191 50.1768 54.6797C50.499 54.2402 50.8213 53.6982 51.1436 53.0537C51.4658 52.4092 51.832 51.5742 52.2422 50.5488C52.623 49.5527 53.1211 48.2344 53.7363 46.5938C54 45.9199 54.2637 45.1875 54.5273 44.3965C54.8203 43.5762 55.1279 42.7412 55.4502 41.8916C54.3955 42.0381 53.502 42.1699 52.7695 42.2871C52.0371 42.4043 51.5977 42.4922 51.4512 42.5508C51.2168 42.5801 51.0264 42.5801 50.8799 42.5508C50.499 42.4922 50.2939 42.3018 50.2646 41.9795C50.2939 41.5693 50.4404 41.291 50.7041 41.1445C50.9385 40.998 51.3047 40.8223 51.8027 40.6172C52.0371 40.5 52.5791 40.2949 53.4287 40.002C54.249 39.6797 55.2598 39.3428 56.4609 38.9912C56.9004 37.7607 57.3252 36.5449 57.7354 35.3438C58.1748 34.1133 58.5996 32.9414 59.0098 31.8281C59.4199 30.7148 59.8154 29.6748 60.1963 28.708C60.5771 27.7119 60.9287 26.8623 61.251 26.1592C61.749 25.0752 62.3789 23.8887 63.1406 22.5996C63.9316 21.2812 64.8252 20.0508 65.8213 18.9082C66.8467 17.7656 67.96 16.8135 69.1611 16.0518C70.3916 15.29 71.6807 14.9092 73.0283 14.9092ZM72.5449 24.0498C72.8672 22.7314 73.0869 21.6475 73.2041 20.7979C73.3213 19.9482 73.3652 19.2891 73.3359 18.8203C73.3066 18.3223 73.2041 17.9854 73.0283 17.8096C72.8818 17.6045 72.6914 17.502 72.457 17.502C72.0762 17.502 71.6074 17.6484 71.0508 17.9414C70.4941 18.2344 69.9082 18.6592 69.293 19.2158C68.6777 19.7432 68.0625 20.417 67.4473 21.2373C66.8613 22.0283 66.334 22.9365 65.8652 23.9619C65.1914 25.4854 64.4297 27.3604 63.5801 29.5869C62.7305 31.7842 61.8076 34.5967 60.8115 38.0244C61.3975 37.9365 61.9688 37.8633 62.5254 37.8047C63.1113 37.7461 63.6826 37.7168 64.2393 37.7168C65.2354 37.7168 66.1875 37.7607 67.0957 37.8486C68.0039 37.9072 68.8389 37.9805 69.6006 38.0684C69.8643 36.6621 70.1279 35.2852 70.3916 33.9375C70.6846 32.5605 70.9629 31.2568 71.2266 30.0264C71.4902 28.7959 71.7246 27.668 71.9297 26.6426C72.1641 25.6172 72.3691 24.7529 72.5449 24.0498Z" fill="white"/>
</svg>
